  0
SECTION
  2
HEADER
  9
$ACADVER
  1
AC1027
  9
$ACADMAINTVER
 70
105
  9
$DWGCODEPAGE
  3
ANSI_1252
  9
$LASTSAVEDBY
  1
ezdxf
  9
$REQUIREDVERSIONS
160
0
  9
$INSBASE
 10
0.0
 20
0.0
 30
0.0
  9
$EXTMIN
 10
1e+20
 20
1e+20
 30
1e+20
  9
$EXTMAX
 10
-1e+20
 20
-1e+20
 30
-1e+20
  9
$LIMMIN
 10
0.0
 20
0.0
  9
$LIMMAX
 10
420.0
 20
297.0
  9
$ORTHOMODE
 70
0
  9
$REGENMODE
 70
1
  9
$FILLMODE
 70
1
  9
$QTEXTMODE
 70
0
  9
$MIRRTEXT
 70
1
  9
$LTSCALE
 40
1.0
  9
$ATTMODE
 70
1
  9
$TEXTSIZE
 40
2.5
  9
$TRACEWID
 40
1.0
  9
$TEXTSTYLE
  7
Standard
  9
$CLAYER
  8
0
  9
$CELTYPE
  6
ByLayer
  9
$CECOLOR
 62
256
  9
$CELTSCALE
 40
1.0
  9
$DISPSILH
 70
0
  9
$DIMSCALE
 40
1.0
  9
$DIMASZ
 40
2.5
  9
$DIMEXO
 40
0.625
  9
$DIMDLI
 40
3.75
  9
$DIMRND
 40
0.0
  9
$DIMDLE
 40
0.0
  9
$DIMEXE
 40
1.25
  9
$DIMTP
 40
0.0
  9
$DIMTM
 40
0.0
  9
$DIMTXT
 40
2.5
  9
$DIMCEN
 40
2.5
  9
$DIMTSZ
 40
0.0
  9
$DIMTOL
 70
0
  9
$DIMLIM
 70
0
  9
$DIMTIH
 70
0
  9
$DIMTOH
 70
0
  9
$DIMSE1
 70
0
  9
$DIMSE2
 70
0
  9
$DIMTAD
 70
1
  9
$DIMZIN
 70
8
  9
$DIMBLK
  1

  9
$DIMASO
 70
1
  9
$DIMSHO
 70
1
  9
$DIMPOST
  1

  9
$DIMAPOST
  1

  9
$DIMALT
 70
0
  9
$DIMALTD
 70
3
  9
$DIMALTF
 40
0.03937007874
  9
$DIMLFAC
 40
1.0
  9
$DIMTOFL
 70
1
  9
$DIMTVP
 40
0.0
  9
$DIMTIX
 70
0
  9
$DIMSOXD
 70
0
  9
$DIMSAH
 70
0
  9
$DIMBLK1
  1

  9
$DIMBLK2
  1

  9
$DIMSTYLE
  2
ISO-25
  9
$DIMCLRD
 70
0
  9
$DIMCLRE
 70
0
  9
$DIMCLRT
 70
0
  9
$DIMTFAC
 40
1.0
  9
$DIMGAP
 40
0.625
  9
$DIMJUST
 70
0
  9
$DIMSD1
 70
0
  9
$DIMSD2
 70
0
  9
$DIMTOLJ
 70
0
  9
$DIMTZIN
 70
8
  9
$DIMALTZ
 70
0
  9
$DIMALTTZ
 70
0
  9
$DIMUPT
 70
0
  9
$DIMDEC
 70
2
  9
$DIMTDEC
 70
2
  9
$DIMALTU
 70
2
  9
$DIMALTTD
 70
3
  9
$DIMTXSTY
  7
Standard
  9
$DIMAUNIT
 70
0
  9
$DIMADEC
 70
0
  9
$DIMALTRND
 40
0.0
  9
$DIMAZIN
 70
0
  9
$DIMDSEP
 70
44
  9
$DIMATFIT
 70
3
  9
$DIMFRAC
 70
0
  9
$DIMLDRBLK
  1

  9
$DIMLUNIT
 70
2
  9
$DIMLWD
 70
-2
  9
$DIMLWE
 70
-2
  9
$DIMTMOVE
 70
0
  9
$DIMFXL
 40
1.0
  9
$DIMFXLON
 70
0
  9
$DIMJOGANG
 40
0.785398163397
  9
$DIMTFILL
 70
0
  9
$DIMTFILLCLR
 70
0
  9
$DIMARCSYM
 70
0
  9
$DIMLTYPE
  6

  9
$DIMLTEX1
  6

  9
$DIMLTEX2
  6

  9
$DIMTXTDIRECTION
 70
0
  9
$LUNITS
 70
2
  9
$LUPREC
 70
4
  9
$SKETCHINC
 40
1.0
  9
$FILLETRAD
 40
10.0
  9
$AUNITS
 70
0
  9
$AUPREC
 70
2
  9
$MENU
  1
.
  9
$ELEVATION
 40
0.0
  9
$PELEVATION
 40
0.0
  9
$THICKNESS
 40
0.0
  9
$LIMCHECK
 70
0
  9
$CHAMFERA
 40
0.0
  9
$CHAMFERB
 40
0.0
  9
$CHAMFERC
 40
0.0
  9
$CHAMFERD
 40
0.0
  9
$SKPOLY
 70
0
  9
$TDCREATE
 40
2461125.7091550925
  9
$TDUCREATE
 40
2458532.153996898
  9
$TDUPDATE
 40
2461125.7091550925
  9
$TDUUPDATE
 40
2458532.1544311
  9
$TDINDWG
 40
0.0
  9
$TDUSRTIMER
 40
0.0
  9
$USRTIMER
 70
1
  9
$ANGBASE
 50
0.0
  9
$ANGDIR
 70
0
  9
$PDMODE
 70
0
  9
$PDSIZE
 40
0.0
  9
$PLINEWID
 40
0.0
  9
$SPLFRAME
 70
0
  9
$SPLINETYPE
 70
6
  9
$SPLINESEGS
 70
8
  9
$HANDSEED
  5
AE
  9
$SURFTAB1
 70
6
  9
$SURFTAB2
 70
6
  9
$SURFTYPE
 70
6
  9
$SURFU
 70
6
  9
$SURFV
 70
6
  9
$UCSBASE
  2

  9
$UCSNAME
  2

  9
$UCSORG
 10
0.0
 20
0.0
 30
0.0
  9
$UCSXDIR
 10
1.0
 20
0.0
 30
0.0
  9
$UCSYDIR
 10
0.0
 20
1.0
 30
0.0
  9
$UCSORTHOREF
  2

  9
$UCSORTHOVIEW
 70
0
  9
$UCSORGTOP
 10
0.0
 20
0.0
 30
0.0
  9
$UCSORGBOTTOM
 10
0.0
 20
0.0
 30
0.0
  9
$UCSORGLEFT
 10
0.0
 20
0.0
 30
0.0
  9
$UCSORGRIGHT
 10
0.0
 20
0.0
 30
0.0
  9
$UCSORGFRONT
 10
0.0
 20
0.0
 30
0.0
  9
$UCSORGBACK
 10
0.0
 20
0.0
 30
0.0
  9
$PUCSBASE
  2

  9
$PUCSNAME
  2

  9
$PUCSORG
 10
0.0
 20
0.0
 30
0.0
  9
$PUCSXDIR
 10
1.0
 20
0.0
 30
0.0
  9
$PUCSYDIR
 10
0.0
 20
1.0
 30
0.0
  9
$PUCSORTHOREF
  2

  9
$PUCSORTHOVIEW
 70
0
  9
$PUCSORGTOP
 10
0.0
 20
0.0
 30
0.0
  9
$PUCSORGBOTTOM
 10
0.0
 20
0.0
 30
0.0
  9
$PUCSORGLEFT
 10
0.0
 20
0.0
 30
0.0
  9
$PUCSORGRIGHT
 10
0.0
 20
0.0
 30
0.0
  9
$PUCSORGFRONT
 10
0.0
 20
0.0
 30
0.0
  9
$PUCSORGBACK
 10
0.0
 20
0.0
 30
0.0
  9
$USERI1
 70
0
  9
$USERI2
 70
0
  9
$USERI3
 70
0
  9
$USERI4
 70
0
  9
$USERI5
 70
0
  9
$USERR1
 40
0.0
  9
$USERR2
 40
0.0
  9
$USERR3
 40
0.0
  9
$USERR4
 40
0.0
  9
$USERR5
 40
0.0
  9
$WORLDVIEW
 70
1
  9
$SHADEDGE
 70
3
  9
$SHADEDIF
 70
70
  9
$TILEMODE
 70
1
  9
$MAXACTVP
 70
64
  9
$PINSBASE
 10
0.0
 20
0.0
 30
0.0
  9
$PLIMCHECK
 70
0
  9
$PEXTMIN
 10
1e+20
 20
1e+20
 30
1e+20
  9
$PEXTMAX
 10
-1e+20
 20
-1e+20
 30
-1e+20
  9
$PLIMMIN
 10
0.0
 20
0.0
  9
$PLIMMAX
 10
420.0
 20
297.0
  9
$UNITMODE
 70
0
  9
$VISRETAIN
 70
1
  9
$PLINEGEN
 70
0
  9
$PSLTSCALE
 70
1
  9
$TREEDEPTH
 70
3020
  9
$CMLSTYLE
  2
Standard
  9
$CMLJUST
 70
0
  9
$CMLSCALE
 40
20.0
  9
$PROXYGRAPHICS
 70
1
  9
$MEASUREMENT
 70
1
  9
$CELWEIGHT
370
-1
  9
$ENDCAPS
280
0
  9
$JOINSTYLE
280
0
  9
$LWDISPLAY
290
0
  9
$INSUNITS
 70
6
  9
$HYPERLINKBASE
  1

  9
$STYLESHEET
  1

  9
$XEDIT
290
1
  9
$CEPSNTYPE
380
0
  9
$PSTYLEMODE
290
1
  9
$FINGERPRINTGUID
  2
{46F16F1E-7996-4858-A0F8-0ECD081E984B}
  9
$VERSIONGUID
  2
{8F94E9EB-555F-417A-B024-A96B14B0E29E}
  9
$EXTNAMES
290
1
  9
$PSVPSCALE
 40
0.0
  9
$OLESTARTUP
290
0
  9
$SORTENTS
280
127
  9
$INDEXCTL
280
0
  9
$HIDETEXT
280
1
  9
$XCLIPFRAME
280
1
  9
$HALOGAP
280
0
  9
$OBSCOLOR
 70
257
  9
$OBSLTYPE
280
0
  9
$INTERSECTIONDISPLAY
280
0
  9
$INTERSECTIONCOLOR
 70
257
  9
$DIMASSOC
280
2
  9
$PROJECTNAME
  1

  9
$CAMERADISPLAY
290
0
  9
$LENSLENGTH
 40
50.0
  9
$CAMERAHEIGHT
 40
0.0
  9
$STEPSPERSEC
 40
24.0
  9
$STEPSIZE
 40
100.0
  9
$3DDWFPREC
 40
2.0
  9
$PSOLWIDTH
 40
0.005
  9
$PSOLHEIGHT
 40
0.08
  9
$LOFTANG1
 40
1.570796326795
  9
$LOFTANG2
 40
1.570796326795
  9
$LOFTMAG1
 40
0.0
  9
$LOFTMAG2
 40
0.0
  9
$LOFTPARAM
 70
7
  9
$LOFTNORMALS
280
1
  9
$LATITUDE
 40
37.795
  9
$LONGITUDE
 40
-122.394
  9
$NORTHDIRECTION
 40
0.0
  9
$TIMEZONE
 70
-8000
  9
$LIGHTGLYPHDISPLAY
280
1
  9
$TILEMODELIGHTSYNCH
280
1
  9
$CMATERIAL
347
20
  9
$SOLIDHIST
280
0
  9
$SHOWHIST
280
1
  9
$DWFFRAME
280
2
  9
$DGNFRAME
280
2
  9
$REALWORLDSCALE
290
1
  9
$INTERFERECOLOR
 62
256
  9
$CSHADOW
280
0
  9
$SHADOWPLANELOCATION
 40
0.0
  0
ENDSEC
  0
SECTION
  2
CLASSES
  0
CLASS
  1
ACDBDICTIONARYWDFLT
  2
AcDbDictionaryWithDefault
  3
ObjectDBX Classes
 90
0
 91
0
280
0
281
0
  0
CLASS
  1
SUN
  2
AcDbSun
  3
SCENEOE
 90
1153
 91
0
280
0
281
0
  0
CLASS
  1
VISUALSTYLE
  2
AcDbVisualStyle
  3
ObjectDBX Classes
 90
4095
 91
0
280
0
281
0
  0
CLASS
  1
MATERIAL
  2
AcDbMaterial
  3
ObjectDBX Classes
 90
1153
 91
0
280
0
281
0
  0
CLASS
  1
SCALE
  2
AcDbScale
  3
ObjectDBX Classes
 90
1153
 91
0
280
0
281
0
  0
CLASS
  1
TABLESTYLE
  2
AcDbTableStyle
  3
ObjectDBX Classes
 90
4095
 91
0
280
0
281
0
  0
CLASS
  1
MLEADERSTYLE
  2
AcDbMLeaderStyle
  3
ACDB_MLEADERSTYLE_CLASS
 90
4095
 91
0
280
0
281
0
  0
CLASS
  1
DICTIONARYVAR
  2
AcDbDictionaryVar
  3
ObjectDBX Classes
 90
0
 91
0
280
0
281
0
  0
CLASS
  1
CELLSTYLEMAP
  2
AcDbCellStyleMap
  3
ObjectDBX Classes
 90
1152
 91
0
280
0
281
0
  0
CLASS
  1
MENTALRAYRENDERSETTINGS
  2
AcDbMentalRayRenderSettings
  3
SCENEOE
 90
1024
 91
0
280
0
281
0
  0
CLASS
  1
ACDBDETAILVIEWSTYLE
  2
AcDbDetailViewStyle
  3
ObjectDBX Classes
 90
1025
 91
0
280
0
281
0
  0
CLASS
  1
ACDBSECTIONVIEWSTYLE
  2
AcDbSectionViewStyle
  3
ObjectDBX Classes
 90
1025
 91
0
280
0
281
0
  0
CLASS
  1
RASTERVARIABLES
  2
AcDbRasterVariables
  3
ISM
 90
0
 91
0
280
0
281
0
  0
CLASS
  1
ACDBPLACEHOLDER
  2
AcDbPlaceHolder
  3
ObjectDBX Classes
 90
0
 91
0
280
0
281
0
  0
CLASS
  1
LAYOUT
  2
AcDbLayout
  3
ObjectDBX Classes
 90
0
 91
0
280
0
281
0
  0
ENDSEC
  0
SECTION
  2
TABLES
  0
TABLE
  2
VPORT
  5
8
330
0
100
AcDbSymbolTable
 70
1
  0
VPORT
  5
23
330
8
100
AcDbSymbolTableRecord
100
AcDbViewportTableRecord
  2
*Active
 70
0
 10
0.0
 20
0.0
 11
1.0
 21
1.0
 12
0.0
 22
0.0
 13
0.0
 23
0.0
 14
0.5
 24
0.5
 15
0.5
 25
0.5
 16
0.0
 26
0.0
 36
1.0
 17
0.0
 27
0.0
 37
0.0
 40
1000.0
 41
1.34
 42
50.0
 43
0.0
 44
0.0
 50
0.0
 51
0.0
 71
0
 72
1000
 73
1
 74
3
 75
0
 76
0
 77
0
 78
0
281
0
 65
0
146
0.0
  0
ENDTAB
  0
TABLE
  2
LTYPE
  5
2
330
0
100
AcDbSymbolTable
 70
3
  0
LTYPE
  5
24
330
2
100
AcDbSymbolTableRecord
100
AcDbLinetypeTableRecord
  2
ByBlock
 70
0
  3

 72
65
 73
0
 40
0.0
  0
LTYPE
  5
25
330
2
100
AcDbSymbolTableRecord
100
AcDbLinetypeTableRecord
  2
ByLayer
 70
0
  3

 72
65
 73
0
 40
0.0
  0
LTYPE
  5
26
330
2
100
AcDbSymbolTableRecord
100
AcDbLinetypeTableRecord
  2
Continuous
 70
0
  3

 72
65
 73
0
 40
0.0
  0
ENDTAB
  0
TABLE
  2
LAYER
  5
1
330
0
100
AcDbSymbolTable
 70
5
  0
LAYER
  5
27
330
1
100
AcDbSymbolTableRecord
100
AcDbLayerTableRecord
  2
0
 70
0
 62
7
  6
Continuous
370
-3
390
13
347
21
  0
LAYER
  5
28
330
1
100
AcDbSymbolTableRecord
100
AcDbLayerTableRecord
  2
Defpoints
 70
0
 62
7
  6
Continuous
290
0
370
-3
390
13
347
21
  0
LAYER
  5
2F
330
1
100
AcDbSymbolTableRecord
100
AcDbLayerTableRecord
  2
LAYER_GAS
 70
0
 62
7
  6
Continuous
370
-3
390
13
347
21
  0
LAYER
  5
42
330
1
100
AcDbSymbolTableRecord
100
AcDbLayerTableRecord
  2
LAYER_WATER
 70
0
 62
7
  6
Continuous
370
-3
390
13
347
21
  0
LAYER
  5
5A
330
1
100
AcDbSymbolTableRecord
100
AcDbLayerTableRecord
  2
LAYER_POWER
 70
0
 62
7
  6
Continuous
370
-3
390
13
347
21
  0
ENDTAB
  0
TABLE
  2
STYLE
  5
5
330
0
100
AcDbSymbolTable
 70
1
  0
STYLE
  5
29
330
5
100
AcDbSymbolTableRecord
100
AcDbTextStyleTableRecord
  2
Standard
 70
0
 40
0.0
 41
1.0
 50
0.0
 71
0
 42
2.5
  3
txt
  4

  0
ENDTAB
  0
TABLE
  2
VIEW
  5
7
330
0
100
AcDbSymbolTable
 70
0
  0
ENDTAB
  0
TABLE
  2
UCS
  5
6
330
0
100
AcDbSymbolTable
 70
0
  0
ENDTAB
  0
TABLE
  2
APPID
  5
3
330
0
100
AcDbSymbolTable
 70
3
  0
APPID
  5
2A
330
3
100
AcDbSymbolTableRecord
100
AcDbRegAppTableRecord
  2
ACAD
 70
0
  0
APPID
  5
AB
330
3
100
AcDbSymbolTableRecord
100
AcDbRegAppTableRecord
  2
HATCHBACKGROUNDCOLOR
 70
0
  0
APPID
  5
AC
330
3
100
AcDbSymbolTableRecord
100
AcDbRegAppTableRecord
  2
EZDXF
 70
0
  0
ENDTAB
  0
TABLE
  2
DIMSTYLE
  5
4
330
0
100
AcDbSymbolTable
 70
1
100
AcDbDimStyleTable
  0
DIMSTYLE
105
2B
330
4
100
AcDbSymbolTableRecord
100
AcDbDimStyleTableRecord
  2
Standard
 70
0
 40
1.0
 41
2.5
 42
0.625
 43
3.75
 44
1.25
 45
0.0
 46
0.0
 47
0.0
 48
0.0
 49
2.5
140
2.5
141
2.5
142
0.0
143
0.03937007874
144
1.0
145
0.0
146
1.0
147
0.625
148
0.0
 69
0
 70
0
 71
0
 72
0
 73
0
 74
0
 75
0
 76
0
 77
1
 78
8
 79
3
170
0
171
3
172
1
173
0
174
0
175
0
176
0
177
0
178
0
179
2
271
2
272
2
273
2
274
3
275
0
276
0
277
2
278
44
279
0
280
0
281
0
282
0
283
0
284
8
285
0
286
0
288
0
289
3
290
0
371
-2
372
-2
  0
ENDTAB
  0
TABLE
  2
BLOCK_RECORD
  5
9
330
0
100
AcDbSymbolTable
 70
2
  0
BLOCK_RECORD
  5
17
330
9
100
AcDbSymbolTableRecord
100
AcDbBlockTableRecord
  2
*Model_Space
340
1A
 70
0
280
1
281
0
  0
BLOCK_RECORD
  5
1B
330
9
100
AcDbSymbolTableRecord
100
AcDbBlockTableRecord
  2
*Paper_Space
340
1E
 70
0
280
1
281
0
  0
ENDTAB
  0
ENDSEC
  0
SECTION
  2
BLOCKS
  0
BLOCK
  5
18
330
17
100
AcDbEntity
  8
0
100
AcDbBlockBegin
  2
*Model_Space
 70
0
 10
0.0
 20
0.0
 30
0.0
  3
*Model_Space
  1

  0
ENDBLK
  5
19
330
17
100
AcDbEntity
  8
0
100
AcDbBlockEnd
  0
BLOCK
  5
1C
330
1B
100
AcDbEntity
  8
0
100
AcDbBlockBegin
  2
*Paper_Space
 70
0
 10
0.0
 20
0.0
 30
0.0
  3
*Paper_Space
  1

  0
ENDBLK
  5
1D
330
1B
100
AcDbEntity
  8
0
100
AcDbBlockEnd
  0
ENDSEC
  0
SECTION
  2
ENTITIES
  0
LWPOLYLINE
  5
30
330
17
100
AcDbEntity
  8
LAYER_GAS
100
AcDbPolyline
 90
3
 70
0
 10
45.55460788861219
 20
84.65052264655476
 10
44.928995237323406
 20
84.5843401391481
 10
44.33359995476087
 20
84.5592547772978
  0
LWPOLYLINE
  5
31
330
17
100
AcDbEntity
  8
LAYER_GAS
100
AcDbPolyline
 90
3
 70
0
 10
44.33359995476087
 20
84.5592547772978
 10
44.1692792733986
 20
84.57298761829648
 10
43.96173391603031
 20
84.6191134762652
  0
LWPOLYLINE
  5
32
330
17
100
AcDbEntity
  8
LAYER_GAS
100
AcDbPolyline
 90
3
 70
0
 10
43.96173391603031
 20
84.6191134762652
 10
44.507590064636155
 20
84.54982080533631
 10
45.028708186843794
 20
84.48118759338983
  0
LWPOLYLINE
  5
33
330
17
100
AcDbEntity
  8
LAYER_GAS
100
AcDbPolyline
 90
3
 70
0
 10
45.028708186843794
 20
84.48118759338983
 10
44.692716862907155
 20
84.50856652723972
 10
44.36088900022518
 20
84.48394574783048
  0
LWPOLYLINE
  5
34
330
17
100
AcDbEntity
  8
LAYER_GAS
100
AcDbPolyline
 90
3
 70
0
 10
44.36088900022518
 20
84.48394574783048
 10
44.37721489259037
 20
84.40679746694617
 10
44.421753124229426
 20
84.29855071814217
  0
LWPOLYLINE
  5
35
330
17
100
AcDbEntity
  8
LAYER_GAS
100
AcDbPolyline
 90
3
 70
0
 10
44.421753124229426
 20
84.29855071814217
 10
44.86619491319546
 20
84.47701472536916
 10
45.33215050540171
 20
84.68846498131163
  0
LWPOLYLINE
  5
36
330
17
100
AcDbEntity
  8
LAYER_GAS
100
AcDbPolyline
 90
3
 70
0
 10
45.33215050540171
 20
84.68846498131163
 10
44.91467403205
 20
84.66233294488296
 10
44.44649926459559
 20
84.69100924628442
  0
LWPOLYLINE
  5
37
330
17
100
AcDbEntity
  8
LAYER_GAS
100
AcDbPolyline
 90
3
 70
0
 10
44.44649926459559
 20
84.69100924628442
 10
44.60268540760795
 20
84.6027550223635
 10
44.79383677056944
 20
84.54331370031831
  0
LWPOLYLINE
  5
38
330
17
100
AcDbEntity
  8
LAYER_GAS
100
AcDbPolyline
 90
3
 70
0
 10
44.79383677056944
 20
84.54331370031831
 10
44.56623088943254
 20
84.10138223689158
 10
44.336516586601746
 20
83.70308905628877
  0
LWPOLYLINE
  5
39
330
17
100
AcDbEntity
  8
LAYER_GAS
100
AcDbPolyline
 90
3
 70
0
 10
44.336516586601746
 20
83.70308905628877
 10
44.673220746711074
 20
84.4171904426734
 10
45.06775289973967
 20
85.08540740000127
  0
LWPOLYLINE
  5
3A
330
17
100
AcDbEntity
  8
LAYER_GAS
100
AcDbPolyline
 90
3
 70
0
 10
45.06775289973967
 20
85.08540740000127
 10
45.029721801723376
 20
85.06501786824153
 10
44.973363676054895
 20
85.02955844008777
  0
LWPOLYLINE
  5
3B
330
17
100
AcDbEntity
  8
LAYER_GAS
100
AcDbPolyline
 90
3
 70
0
 10
44.973363676054895
 20
85.02955844008777
 10
45.278908904366865
 20
84.75956663903959
 10
45.56024910444528
 20
84.52882585182725
  0
LWPOLYLINE
  5
3C
330
17
100
AcDbEntity
  8
LAYER_GAS
100
AcDbPolyline
 90
3
 70
0
 10
45.56024910444528
 20
84.52882585182725
 10
45.72832961955858
 20
84.504055770948
 10
45.849138941746844
 20
84.44784524677686
  0
LWPOLYLINE
  5
3D
330
17
100
AcDbEntity
  8
LAYER_GAS
100
AcDbPolyline
 90
3
 70
0
 10
45.849138941746844
 20
84.44784524677686
 10
44.9509669699743
 20
84.10254698684358
 10
43.99313104464098
 20
83.74046521872859
  0
LWPOLYLINE
  5
3E
330
17
100
AcDbEntity
  8
LAYER_GAS
100
AcDbPolyline
 90
3
 70
0
 10
43.99313104464098
 20
83.74046521872859
 10
44.75834792903719
 20
84.34227556449297
 10
45.542751029301385
 20
84.90311417488473
  0
LWPOLYLINE
  5
3F
330
17
100
AcDbEntity
  8
LAYER_GAS
100
AcDbPolyline
 90
3
 70
0
 10
45.542751029301385
 20
84.90311417488473
 10
45.25937747240006
 20
84.19041218367639
 10
45.01466379523283
 20
83.48483642858461
  0
LWPOLYLINE
  5
40
330
17
100
AcDbEntity
  8
LAYER_GAS
100
AcDbPolyline
 90
3
 70
0
 10
45.01466379523283
 20
83.48483642858461
 10
45.02224295019012
 20
83.49768166210362
 10
45.08033692019456
 20
83.49245752117253
  0
LWPOLYLINE
  5
41
330
17
100
AcDbEntity
  8
LAYER_GAS
100
AcDbPolyline
 90
3
 70
0
 10
45.08033692019456
 20
83.49245752117253
 10
45.07875990866982
 20
83.48095690422281
 10
45.10842219471385
 20
83.51818865384233
  0
LWPOLYLINE
  5
43
330
17
100
AcDbEntity
  8
LAYER_WATER
100
AcDbPolyline
 90
3
 70
0
 10
45.242517726217066
 20
84.91357886824909
 10
45.322850009029146
 20
84.82739238825773
 10
45.404683908053116
 20
84.69655238146575
  0
LWPOLYLINE
  5
44
330
17
100
AcDbEntity
  8
LAYER_WATER
100
AcDbPolyline
 90
3
 70
0
 10
45.404683908053116
 20
84.69655238146575
 10
45.45563718952215
 20
84.63430367615626
 10
45.48980909926625
 20
84.58339196371843
  0
LWPOLYLINE
  5
45
330
17
100
AcDbEntity
  8
LAYER_WATER
100
AcDbPolyline
 90
3
 70
0
 10
45.48980909926625
 20
84.58339196371843
 10
45.24401289723497
 20
84.40389269860574
 10
44.943462237469504
 20
84.17665048540074
  0
LWPOLYLINE
  5
46
330
17
100
AcDbEntity
  8
LAYER_WATER
100
AcDbPolyline
 90
3
 70
0
 10
44.943462237469504
 20
84.17665048540074
 10
44.62858091621364
 20
84.20299493155039
 10
44.30004868468303
 20
84.24198880826233
  0
LWPOLYLINE
  5
47
330
17
100
AcDbEntity
  8
LAYER_WATER
100
AcDbPolyline
 90
3
 70
0
 10
44.30004868468303
 20
84.24198880826233
 10
44.8665798468567
 20
84.65648386199882
 10
45.44722627870884
 20
85.10499743056374
  0
LWPOLYLINE
  5
48
330
17
100
AcDbEntity
  8
LAYER_WATER
100
AcDbPolyline
 90
3
 70
0
 10
45.44722627870884
 20
85.10499743056374
 10
45.422135944213366
 20
85.14762125628937
 10
45.435435234305025
 20
85.16682242669779
  0
LWPOLYLINE
  5
49
330
17
100
AcDbEntity
  8
LAYER_WATER
100
AcDbPolyline
 90
3
 70
0
 10
45.435435234305025
 20
85.16682242669779
 10
45.31740541857225
 20
85.19466448395262
 10
45.165024030703385
 20
85.28228359227636
  0
LWPOLYLINE
  5
4A
330
17
100
AcDbEntity
  8
LAYER_WATER
100
AcDbPolyline
 90
3
 70
0
 10
45.165024030703385
 20
85.28228359227636
 10
45.037962253325006
 20
84.537876073025
 10
44.90344587463773
 20
83.79771616956855
  0
LWPOLYLINE
  5
4B
330
17
100
AcDbEntity
  8
LAYER_WATER
100
AcDbPolyline
 90
3
 70
0
 10
44.90344587463773
 20
83.79771616956855
 10
44.73050786433941
 20
83.91742876877889
 10
44.58107242691226
 20
84.04190441688795
  0
LWPOLYLINE
  5
4C
330
17
100
AcDbEntity
  8
LAYER_WATER
100
AcDbPolyline
 90
3
 70
0
 10
44.58107242691226
 20
84.04190441688795
 10
44.96586914562268
 20
84.30783269291358
 10
45.33752705642669
 20
84.51967466111567
  0
LWPOLYLINE
  5
4D
330
17
100
AcDbEntity
  8
LAYER_WATER
100
AcDbPolyline
 90
3
 70
0
 10
45.33752705642669
 20
84.51967466111567
 10
45.24494566059488
 20
84.1916451278869
 10
45.20983480095816
 20
83.85473034767605
  0
LWPOLYLINE
  5
4E
330
17
100
AcDbEntity
  8
LAYER_WATER
100
AcDbPolyline
 90
3
 70
0
 10
45.20983480095816
 20
83.85473034767605
 10
45.27310740268773
 20
83.72823643906895
 10
45.35769899125765
 20
83.56608090487296
  0
LWPOLYLINE
  5
4F
330
17
100
AcDbEntity
  8
LAYER_WATER
100
AcDbPolyline
 90
3
 70
0
 10
45.35769899125765
 20
83.56608090487296
 10
45.29982175272502
 20
83.73170019196138
 10
45.18236699805196
 20
83.94561777319186
  0
LWPOLYLINE
  5
50
330
17
100
AcDbEntity
  8
LAYER_WATER
100
AcDbPolyline
 90
3
 70
0
 10
45.18236699805196
 20
83.94561777319186
 10
45.23887215330353
 20
83.8119626174864
 10
45.23807460699729
 20
83.70644096867004
  0
LWPOLYLINE
  5
51
330
17
100
AcDbEntity
  8
LAYER_WATER
100
AcDbPolyline
 90
3
 70
0
 10
45.23807460699729
 20
83.70644096867004
 10
44.98666132484864
 20
84.19435761590414
 10
44.690457275892435
 20
84.67273381797236
  0
LWPOLYLINE
  5
52
330
17
100
AcDbEntity
  8
LAYER_WATER
100
AcDbPolyline
 90
3
 70
0
 10
44.690457275892435
 20
84.67273381797236
 10
44.736178111536844
 20
84.66156978670442
 10
44.787768866112295
 20
84.64897792333187
  0
LWPOLYLINE
  5
53
330
17
100
AcDbEntity
  8
LAYER_WATER
100
AcDbPolyline
 90
3
 70
0
 10
44.787768866112295
 20
84.64897792333187
 10
44.55091655111647
 20
84.1505947147867
 10
44.28082086194949
 20
83.6382743579809
  0
LWPOLYLINE
  5
54
330
17
100
AcDbEntity
  8
LAYER_WATER
100
AcDbPolyline
 90
3
 70
0
 10
44.28082086194949
 20
83.6382743579809
 10
44.64494460574738
 20
84.12177034184501
 10
45.054609462308804
 20
84.5928369664742
  0
LWPOLYLINE
  5
55
330
17
100
AcDbEntity
  8
LAYER_WATER
100
AcDbPolyline
 90
3
 70
0
 10
45.054609462308804
 20
84.5928369664742
 10
44.98865432731315
 20
84.90331590230808
 10
44.910534870233086
 20
85.20373060656726
  0
LWPOLYLINE
  5
56
330
17
100
AcDbEntity
  8
LAYER_WATER
100
AcDbPolyline
 90
3
 70
0
 10
44.910534870233086
 20
85.20373060656726
 10
45.228768921376734
 20
84.84304616787021
 10
45.60488087511702
 20
84.49890354650783
  0
LWPOLYLINE
  5
57
330
17
100
AcDbEntity
  8
LAYER_WATER
100
AcDbPolyline
 90
3
 70
0
 10
45.60488087511702
 20
84.49890354650783
 10
44.80631616133015
 20
84.1340706257522
 10
43.985093119830985
 20
83.77203685423679
  0
LWPOLYLINE
  5
58
330
17
100
AcDbEntity
  8
LAYER_WATER
100
AcDbPolyline
 90
3
 70
0
 10
43.985093119830985
 20
83.77203685423679
 10
44.05599846488057
 20
83.76941489296985
 10
44.088025811858145
 20
83.71600685164793
  0
LWPOLYLINE
  5
59
330
17
100
AcDbEntity
  8
LAYER_WATER
100
AcDbPolyline
 90
3
 70
0
 10
44.088025811858145
 20
83.71600685164793
 10
44.61591747192014
 20
83.5802913497203
 10
45.112564735701085
 20
83.49727722643071
  0
LWPOLYLINE
  5
5B
330
17
100
AcDbEntity
  8
LAYER_POWER
100
AcDbPolyline
 90
3
 70
0
 10
45.218111997909205
 20
85.13705453321326
 10
44.784042249548285
 20
84.98573224617313
 10
44.38867651577861
 20
84.82899971099728
  0
LWPOLYLINE
  5
5C
330
17
100
AcDbEntity
  8
LAYER_POWER
100
AcDbPolyline
 90
3
 70
0
 10
44.38867651577861
 20
84.82899971099728
 10
44.38983929522501
 20
84.6795453543057
 10
44.3706653488049
 20
84.55370408504807
  0
LWPOLYLINE
  5
5D
330
17
100
AcDbEntity
  8
LAYER_POWER
100
AcDbPolyline
 90
3
 70
0
 10
44.3706653488049
 20
84.55370408504807
 10
44.23835734569135
 20
84.76050555794409
 10
44.165010981101005
 20
84.91191685800453
  0
LWPOLYLINE
  5
5E
330
17
100
AcDbEntity
  8
LAYER_POWER
100
AcDbPolyline
 90
3
 70
0
 10
44.165010981101005
 20
84.91191685800453
 10
44.049974918683574
 20
84.95589957743155
 10
43.98870561897529
 20
85.01037760055166
  0
LWPOLYLINE
  5
5F
330
17
100
AcDbEntity
  8
LAYER_POWER
100
AcDbPolyline
 90
3
 70
0
 10
43.98870561897529
 20
85.01037760055166
 10
44.08677775429286
 20
85.04335373564388
 10
44.15709418283397
 20
85.09973381156883
  0
LWPOLYLINE
  5
60
330
17
100
AcDbEntity
  8
LAYER_POWER
100
AcDbPolyline
 90
3
 70
0
 10
44.15709418283397
 20
85.09973381156883
 10
44.4418276509011
 20
84.71504976896547
 10
44.735119563909784
 20
84.2967358767338
  0
LWPOLYLINE
  5
61
330
17
100
AcDbEntity
  8
LAYER_POWER
100
AcDbPolyline
 90
3
 70
0
 10
44.735119563909784
 20
84.2967358767338
 10
44.66316842597743
 20
84.01898997174351
 10
44.5611694706292
 20
83.7626902633418
  0
LWPOLYLINE
  5
62
330
17
100
AcDbEntity
  8
LAYER_POWER
100
AcDbPolyline
 90
3
 70
0
 10
44.5611694706292
 20
83.7626902633418
 10
44.72457126574052
 20
83.78581257968742
 10
44.87792107127348
 20
83.81876764204311
  0
LWPOLYLINE
  5
63
330
17
100
AcDbEntity
  8
LAYER_POWER
100
AcDbPolyline
 90
3
 70
0
 10
44.87792107127348
 20
83.81876764204311
 10
45.21595936238629
 20
84.12043242979179
 10
45.49500046112745
 20
84.39095000356666
  0
LWPOLYLINE
  5
64
330
17
100
AcDbEntity
  8
LAYER_POWER
100
AcDbPolyline
 90
3
 70
0
 10
45.49500046112745
 20
84.39095000356666
 10
44.972835592942914
 20
84.05706130834291
 10
44.414797311386295
 20
83.67966482324978
  0
LWPOLYLINE
  5
65
330
17
100
AcDbEntity
  8
LAYER_POWER
100
AcDbPolyline
 90
3
 70
0
 10
44.414797311386295
 20
83.67966482324978
 10
44.40389794298782
 20
83.72625523143061
 10
44.373420107768986
 20
83.72199630742664
  0
LWPOLYLINE
  5
66
330
17
100
AcDbEntity
  8
LAYER_POWER
100
AcDbPolyline
 90
3
 70
0
 10
44.373420107768986
 20
83.72199630742664
 10
44.791127959891035
 20
84.36063468322307
 10
45.17313331720883
 20
84.95482828564968
  0
LWPOLYLINE
  5
67
330
17
100
AcDbEntity
  8
LAYER_POWER
100
AcDbPolyline
 90
3
 70
0
 10
45.17313331720883
 20
84.95482828564968
 10
45.0997740702525
 20
84.7862273990475
 10
45.00523558036078
 20
84.64486287589658
  0
LWPOLYLINE
  5
68
330
17
100
AcDbEntity
  8
LAYER_POWER
100
AcDbPolyline
 90
3
 70
0
 10
45.00523558036078
 20
84.64486287589658
 10
44.66383157746876
 20
84.95108586993801
 10
44.35948586001899
 20
85.20175032151705
  0
LWPOLYLINE
  5
69
330
17
100
AcDbEntity
  8
LAYER_POWER
100
AcDbPolyline
 90
3
 70
0
 10
44.35948586001899
 20
85.20175032151705
 10
44.16231940218473
 20
84.44759073900646
 10
43.956673257095964
 20
83.66632357932353
  0
LWPOLYLINE
  5
6A
330
17
100
AcDbEntity
  8
LAYER_POWER
100
AcDbPolyline
 90
3
 70
0
 10
43.956673257095964
 20
83.66632357932353
 10
44.01183138030165
 20
83.70888779168108
 10
44.08466113274045
 20
83.72070692496023
  0
LWPOLYLINE
  5
6B
330
17
100
AcDbEntity
  8
LAYER_POWER
100
AcDbPolyline
 90
3
 70
0
 10
44.08466113274045
 20
83.72070692496023
 10
44.237594493361385
 20
83.81436409658545
 10
44.357579213681376
 20
83.93473617692058
  0
LWPOLYLINE
  5
6C
330
17
100
AcDbEntity
  8
LAYER_POWER
100
AcDbPolyline
 90
3
 70
0
 10
44.357579213681376
 20
83.93473617692058
 10
44.96017732713012
 20
84.45577335207713
 10
45.52475091273843
 20
84.97634140719337
  0
CIRCLE
  5
6D
330
17
100
AcDbEntity
  8
NODES
100
AcDbCircle
 10
45.218111997909205
 20
85.13705453321326
 30
0.0
 40
0.01
  0
CIRCLE
  5
6E
330
17
100
AcDbEntity
  8
NODES
100
AcDbCircle
 10
45.242517726217066
 20
84.91357886824909
 30
0.0
 40
0.01
  0
CIRCLE
  5
6F
330
17
100
AcDbEntity
  8
NODES
100
AcDbCircle
 10
45.404683908053116
 20
84.69655238146575
 30
0.0
 40
0.01
  0
CIRCLE
  5
70
330
17
100
AcDbEntity
  8
NODES
100
AcDbCircle
 10
45.55460788861219
 20
84.65052264655476
 30
0.0
 40
0.01
  0
CIRCLE
  5
71
330
17
100
AcDbEntity
  8
NODES
100
AcDbCircle
 10
45.48980909926625
 20
84.58339196371843
 30
0.0
 40
0.01
  0
CIRCLE
  5
72
330
17
100
AcDbEntity
  8
NODES
100
AcDbCircle
 10
44.38867651577861
 20
84.82899971099728
 30
0.0
 40
0.01
  0
CIRCLE
  5
73
330
17
100
AcDbEntity
  8
NODES
100
AcDbCircle
 10
44.3706653488049
 20
84.55370408504807
 30
0.0
 40
0.01
  0
CIRCLE
  5
74
330
17
100
AcDbEntity
  8
NODES
100
AcDbCircle
 10
44.33359995476087
 20
84.5592547772978
 30
0.0
 40
0.01
  0
CIRCLE
  5
75
330
17
100
AcDbEntity
  8
NODES
100
AcDbCircle
 10
43.96173391603031
 20
84.6191134762652
 30
0.0
 40
0.01
  0
CIRCLE
  5
76
330
17
100
AcDbEntity
  8
NODES
100
AcDbCircle
 10
44.165010981101005
 20
84.91191685800453
 30
0.0
 40
0.01
  0
CIRCLE
  5
77
330
17
100
AcDbEntity
  8
NODES
100
AcDbCircle
 10
43.98870561897529
 20
85.01037760055166
 30
0.0
 40
0.01
  0
CIRCLE
  5
78
330
17
100
AcDbEntity
  8
NODES
100
AcDbCircle
 10
44.15709418283397
 20
85.09973381156883
 30
0.0
 40
0.01
  0
CIRCLE
  5
79
330
17
100
AcDbEntity
  8
NODES
100
AcDbCircle
 10
44.943462237469504
 20
84.17665048540074
 30
0.0
 40
0.01
  0
CIRCLE
  5
7A
330
17
100
AcDbEntity
  8
NODES
100
AcDbCircle
 10
45.028708186843794
 20
84.48118759338983
 30
0.0
 40
0.01
  0
CIRCLE
  5
7B
330
17
100
AcDbEntity
  8
NODES
100
AcDbCircle
 10
44.735119563909784
 20
84.2967358767338
 30
0.0
 40
0.01
  0
CIRCLE
  5
7C
330
17
100
AcDbEntity
  8
NODES
100
AcDbCircle
 10
44.36088900022518
 20
84.48394574783048
 30
0.0
 40
0.01
  0
CIRCLE
  5
7D
330
17
100
AcDbEntity
  8
NODES
100
AcDbCircle
 10
44.421753124229426
 20
84.29855071814217
 30
0.0
 40
0.01
  0
CIRCLE
  5
7E
330
17
100
AcDbEntity
  8
NODES
100
AcDbCircle
 10
44.30004868468303
 20
84.24198880826233
 30
0.0
 40
0.01
  0
CIRCLE
  5
7F
330
17
100
AcDbEntity
  8
NODES
100
AcDbCircle
 10
45.44722627870884
 20
85.10499743056374
 30
0.0
 40
0.01
  0
CIRCLE
  5
80
330
17
100
AcDbEntity
  8
NODES
100
AcDbCircle
 10
45.435435234305025
 20
85.16682242669779
 30
0.0
 40
0.01
  0
CIRCLE
  5
81
330
17
100
AcDbEntity
  8
NODES
100
AcDbCircle
 10
45.165024030703385
 20
85.28228359227636
 30
0.0
 40
0.01
  0
CIRCLE
  5
82
330
17
100
AcDbEntity
  8
NODES
100
AcDbCircle
 10
44.5611694706292
 20
83.7626902633418
 30
0.0
 40
0.01
  0
CIRCLE
  5
83
330
17
100
AcDbEntity
  8
NODES
100
AcDbCircle
 10
44.90344587463773
 20
83.79771616956855
 30
0.0
 40
0.01
  0
CIRCLE
  5
84
330
17
100
AcDbEntity
  8
NODES
100
AcDbCircle
 10
44.58107242691226
 20
84.04190441688795
 30
0.0
 40
0.01
  0
CIRCLE
  5
85
330
17
100
AcDbEntity
  8
NODES
100
AcDbCircle
 10
44.87792107127348
 20
83.81876764204311
 30
0.0
 40
0.01
  0
CIRCLE
  5
86
330
17
100
AcDbEntity
  8
NODES
100
AcDbCircle
 10
45.33215050540171
 20
84.68846498131163
 30
0.0
 40
0.01
  0
CIRCLE
  5
87
330
17
100
AcDbEntity
  8
NODES
100
AcDbCircle
 10
45.33752705642669
 20
84.51967466111567
 30
0.0
 40
0.01
  0
CIRCLE
  5
88
330
17
100
AcDbEntity
  8
NODES
100
AcDbCircle
 10
45.49500046112745
 20
84.39095000356666
 30
0.0
 40
0.01
  0
CIRCLE
  5
89
330
17
100
AcDbEntity
  8
NODES
100
AcDbCircle
 10
45.20983480095816
 20
83.85473034767605
 30
0.0
 40
0.01
  0
CIRCLE
  5
8A
330
17
100
AcDbEntity
  8
NODES
100
AcDbCircle
 10
45.35769899125765
 20
83.56608090487296
 30
0.0
 40
0.01
  0
CIRCLE
  5
8B
330
17
100
AcDbEntity
  8
NODES
100
AcDbCircle
 10
45.18236699805196
 20
83.94561777319186
 30
0.0
 40
0.01
  0
CIRCLE
  5
8C
330
17
100
AcDbEntity
  8
NODES
100
AcDbCircle
 10
45.23807460699729
 20
83.70644096867004
 30
0.0
 40
0.01
  0
CIRCLE
  5
8D
330
17
100
AcDbEntity
  8
NODES
100
AcDbCircle
 10
44.690457275892435
 20
84.67273381797236
 30
0.0
 40
0.01
  0
CIRCLE
  5
8E
330
17
100
AcDbEntity
  8
NODES
100
AcDbCircle
 10
44.44649926459559
 20
84.69100924628442
 30
0.0
 40
0.01
  0
CIRCLE
  5
8F
330
17
100
AcDbEntity
  8
NODES
100
AcDbCircle
 10
44.79383677056944
 20
84.54331370031831
 30
0.0
 40
0.01
  0
CIRCLE
  5
90
330
17
100
AcDbEntity
  8
NODES
100
AcDbCircle
 10
44.787768866112295
 20
84.64897792333187
 30
0.0
 40
0.01
  0
CIRCLE
  5
91
330
17
100
AcDbEntity
  8
NODES
100
AcDbCircle
 10
44.414797311386295
 20
83.67966482324978
 30
0.0
 40
0.01
  0
CIRCLE
  5
92
330
17
100
AcDbEntity
  8
NODES
100
AcDbCircle
 10
44.28082086194949
 20
83.6382743579809
 30
0.0
 40
0.01
  0
CIRCLE
  5
93
330
17
100
AcDbEntity
  8
NODES
100
AcDbCircle
 10
44.373420107768986
 20
83.72199630742664
 30
0.0
 40
0.01
  0
CIRCLE
  5
94
330
17
100
AcDbEntity
  8
NODES
100
AcDbCircle
 10
44.336516586601746
 20
83.70308905628877
 30
0.0
 40
0.01
  0
CIRCLE
  5
95
330
17
100
AcDbEntity
  8
NODES
100
AcDbCircle
 10
45.06775289973967
 20
85.08540740000127
 30
0.0
 40
0.01
  0
CIRCLE
  5
96
330
17
100
AcDbEntity
  8
NODES
100
AcDbCircle
 10
44.973363676054895
 20
85.02955844008777
 30
0.0
 40
0.01
  0
CIRCLE
  5
97
330
17
100
AcDbEntity
  8
NODES
100
AcDbCircle
 10
45.17313331720883
 20
84.95482828564968
 30
0.0
 40
0.01
  0
CIRCLE
  5
98
330
17
100
AcDbEntity
  8
NODES
100
AcDbCircle
 10
45.00523558036078
 20
84.64486287589658
 30
0.0
 40
0.01
  0
CIRCLE
  5
99
330
17
100
AcDbEntity
  8
NODES
100
AcDbCircle
 10
45.054609462308804
 20
84.5928369664742
 30
0.0
 40
0.01
  0
CIRCLE
  5
9A
330
17
100
AcDbEntity
  8
NODES
100
AcDbCircle
 10
44.910534870233086
 20
85.20373060656726
 30
0.0
 40
0.01
  0
CIRCLE
  5
9B
330
17
100
AcDbEntity
  8
NODES
100
AcDbCircle
 10
44.35948586001899
 20
85.20175032151705
 30
0.0
 40
0.01
  0
CIRCLE
  5
9C
330
17
100
AcDbEntity
  8
NODES
100
AcDbCircle
 10
45.56024910444528
 20
84.52882585182725
 30
0.0
 40
0.01
  0
CIRCLE
  5
9D
330
17
100
AcDbEntity
  8
NODES
100
AcDbCircle
 10
45.849138941746844
 20
84.44784524677686
 30
0.0
 40
0.01
  0
CIRCLE
  5
9E
330
17
100
AcDbEntity
  8
NODES
100
AcDbCircle
 10
45.60488087511702
 20
84.49890354650783
 30
0.0
 40
0.01
  0
CIRCLE
  5
9F
330
17
100
AcDbEntity
  8
NODES
100
AcDbCircle
 10
43.985093119830985
 20
83.77203685423679
 30
0.0
 40
0.01
  0
CIRCLE
  5
A0
330
17
100
AcDbEntity
  8
NODES
100
AcDbCircle
 10
43.99313104464098
 20
83.74046521872859
 30
0.0
 40
0.01
  0
CIRCLE
  5
A1
330
17
100
AcDbEntity
  8
NODES
100
AcDbCircle
 10
43.956673257095964
 20
83.66632357932353
 30
0.0
 40
0.01
  0
CIRCLE
  5
A2
330
17
100
AcDbEntity
  8
NODES
100
AcDbCircle
 10
44.08466113274045
 20
83.72070692496023
 30
0.0
 40
0.01
  0
CIRCLE
  5
A3
330
17
100
AcDbEntity
  8
NODES
100
AcDbCircle
 10
44.357579213681376
 20
83.93473617692058
 30
0.0
 40
0.01
  0
CIRCLE
  5
A4
330
17
100
AcDbEntity
  8
NODES
100
AcDbCircle
 10
44.088025811858145
 20
83.71600685164793
 30
0.0
 40
0.01
  0
CIRCLE
  5
A5
330
17
100
AcDbEntity
  8
NODES
100
AcDbCircle
 10
45.542751029301385
 20
84.90311417488473
 30
0.0
 40
0.01
  0
CIRCLE
  5
A6
330
17
100
AcDbEntity
  8
NODES
100
AcDbCircle
 10
45.52475091273843
 20
84.97634140719337
 30
0.0
 40
0.01
  0
CIRCLE
  5
A7
330
17
100
AcDbEntity
  8
NODES
100
AcDbCircle
 10
45.01466379523283
 20
83.48483642858461
 30
0.0
 40
0.01
  0
CIRCLE
  5
A8
330
17
100
AcDbEntity
  8
NODES
100
AcDbCircle
 10
45.112564735701085
 20
83.49727722643071
 30
0.0
 40
0.01
  0
CIRCLE
  5
A9
330
17
100
AcDbEntity
  8
NODES
100
AcDbCircle
 10
45.08033692019456
 20
83.49245752117253
 30
0.0
 40
0.01
  0
CIRCLE
  5
AA
330
17
100
AcDbEntity
  8
NODES
100
AcDbCircle
 10
45.10842219471385
 20
83.51818865384233
 30
0.0
 40
0.01
  0
ENDSEC
  0
SECTION
  2
OBJECTS
  0
DICTIONARY
  5
A
330
0
100
AcDbDictionary
281
1
  3
ACAD_COLOR
350
B
  3
ACAD_GROUP
350
C
  3
ACAD_LAYOUT
350
D
  3
ACAD_MATERIAL
350
E
  3
ACAD_MLEADERSTYLE
350
F
  3
ACAD_MLINESTYLE
350
10
  3
ACAD_PLOTSETTINGS
350
11
  3
ACAD_PLOTSTYLENAME
350
12
  3
ACAD_SCALELIST
350
14
  3
ACAD_TABLESTYLE
350
15
  3
ACAD_VISUALSTYLE
350
16
  3
EZDXF_META
350
2D
  0
DICTIONARY
  5
B
330
A
100
AcDbDictionary
281
1
  0
DICTIONARY
  5
C
330
A
100
AcDbDictionary
281
1
  0
DICTIONARY
  5
D
330
A
100
AcDbDictionary
281
1
  3
Model
350
1A
  3
Layout1
350
1E
  0
DICTIONARY
  5
E
330
A
100
AcDbDictionary
281
1
  3
ByBlock
350
1F
  3
ByLayer
350
20
  3
Global
350
21
  0
DICTIONARY
  5
F
330
A
100
AcDbDictionary
281
1
  3
Standard
350
2C
  0
DICTIONARY
  5
10
330
A
100
AcDbDictionary
281
1
  3
Standard
350
22
  0
DICTIONARY
  5
11
330
A
100
AcDbDictionary
281
1
  0
ACDBDICTIONARYWDFLT
  5
12
330
A
100
AcDbDictionary
281
1
  3
Normal
350
13
100
AcDbDictionaryWithDefault
340
13
  0
ACDBPLACEHOLDER
  5
13
330
12
  0
DICTIONARY
  5
14
330
A
100
AcDbDictionary
281
1
  0
DICTIONARY
  5
15
330
A
100
AcDbDictionary
281
1
  0
DICTIONARY
  5
16
330
A
100
AcDbDictionary
281
1
  0
LAYOUT
  5
1A
330
D
100
AcDbPlotSettings
  1

  4
A3
  6

 40
7.5
 41
20.0
 42
7.5
 43
20.0
 44
420.0
 45
297.0
 46
0.0
 47
0.0
 48
0.0
 49
0.0
140
0.0
141
0.0
142
1.0
143
1.0
 70
1024
 72
1
 73
0
 74
5
  7

 75
16
 76
0
 77
2
 78
300
147
1.0
148
0.0
149
0.0
100
AcDbLayout
  1
Model
 70
1
 71
0
 10
0.0
 20
0.0
 11
420.0
 21
297.0
 12
0.0
 22
0.0
 32
0.0
 14
1e+20
 24
1e+20
 34
1e+20
 15
-1e+20
 25
-1e+20
 35
-1e+20
146
0.0
 13
0.0
 23
0.0
 33
0.0
 16
1.0
 26
0.0
 36
0.0
 17
0.0
 27
1.0
 37
0.0
 76
1
330
17
  0
LAYOUT
  5
1E
330
D
100
AcDbPlotSettings
  1

  4
A3
  6

 40
7.5
 41
20.0
 42
7.5
 43
20.0
 44
420.0
 45
297.0
 46
0.0
 47
0.0
 48
0.0
 49
0.0
140
0.0
141
0.0
142
1.0
143
1.0
 70
0
 72
1
 73
0
 74
5
  7

 75
16
 76
0
 77
2
 78
300
147
1.0
148
0.0
149
0.0
100
AcDbLayout
  1
Layout1
 70
1
 71
1
 10
0.0
 20
0.0
 11
420.0
 21
297.0
 12
0.0
 22
0.0
 32
0.0
 14
1e+20
 24
1e+20
 34
1e+20
 15
-1e+20
 25
-1e+20
 35
-1e+20
146
0.0
 13
0.0
 23
0.0
 33
0.0
 16
1.0
 26
0.0
 36
0.0
 17
0.0
 27
1.0
 37
0.0
 76
1
330
1B
  0
MATERIAL
  5
1F
102
{ACAD_REACTORS
330
E
102
}
330
E
100
AcDbMaterial
  1
ByBlock
  2

 70
0
 40
1.0
 71
1
 41
1.0
 91
-1023410177
 42
1.0
 72
1
  3

 73
1
 74
1
 75
1
 44
0.5
 73
0
 45
1.0
 46
1.0
 77
1
  4

 78
1
 79
1
170
1
 48
1.0
171
1
  6

172
1
173
1
174
1
140
1.0
141
1.0
175
1
  7

176
1
177
1
178
1
143
1.0
179
1
  8

270
1
271
1
272
1
145
1.0
146
1.0
273
1
  9

274
1
275
1
276
1
 42
1.0
 72
1
  3

 73
1
 74
1
 75
1
 94
63
  0
MATERIAL
  5
20
102
{ACAD_REACTORS
330
E
102
}
330
E
100
AcDbMaterial
  1
ByLayer
  2

 70
0
 40
1.0
 71
1
 41
1.0
 91
-1023410177
 42
1.0
 72
1
  3

 73
1
 74
1
 75
1
 44
0.5
 73
0
 45
1.0
 46
1.0
 77
1
  4

 78
1
 79
1
170
1
 48
1.0
171
1
  6

172
1
173
1
174
1
140
1.0
141
1.0
175
1
  7

176
1
177
1
178
1
143
1.0
179
1
  8

270
1
271
1
272
1
145
1.0
146
1.0
273
1
  9

274
1
275
1
276
1
 42
1.0
 72
1
  3

 73
1
 74
1
 75
1
 94
63
  0
MATERIAL
  5
21
102
{ACAD_REACTORS
330
E
102
}
330
E
100
AcDbMaterial
  1
Global
  2

 70
0
 40
1.0
 71
1
 41
1.0
 91
-1023410177
 42
1.0
 72
1
  3

 73
1
 74
1
 75
1
 44
0.5
 73
0
 45
1.0
 46
1.0
 77
1
  4

 78
1
 79
1
170
1
 48
1.0
171
1
  6

172
1
173
1
174
1
140
1.0
141
1.0
175
1
  7

176
1
177
1
178
1
143
1.0
179
1
  8

270
1
271
1
272
1
145
1.0
146
1.0
273
1
  9

274
1
275
1
276
1
 42
1.0
 72
1
  3

 73
1
 74
1
 75
1
 94
63
  0
MLINESTYLE
  5
22
102
{ACAD_REACTORS
330
10
102
}
330
10
100
AcDbMlineStyle
  2
Standard
 70
0
  3

 62
256
 51
90.0
 52
90.0
 71
2
 49
0.5
 62
256
  6
BYLAYER
 49
-0.5
 62
256
  6
BYLAYER
  0
MLEADERSTYLE
  5
2C
102
{ACAD_REACTORS
330
F
102
}
330
F
100
AcDbMLeaderStyle
179
2
170
2
171
1
172
0
 90
2
 40
0.0
 41
0.0
173
1
 91
-1056964608
 92
-2
290
1
 42
2.0
291
1
 43
8.0
  3
Standard
 44
4.0
300

342
29
174
1
175
1
176
0
178
1
 93
-1056964608
 45
4.0
292
0
297
0
 46
4.0
 94
-1056964608
 47
1.0
 49
1.0
140
1.0
294
1
141
0.0
177
0
142
1.0
295
0
296
0
143
3.75
271
0
272
9
273
9
  0
DICTIONARY
  5
2D
330
A
100
AcDbDictionary
280
1
281
1
  3
CREATED_BY_EZDXF
350
2E
  3
WRITTEN_BY_EZDXF
350
AD
  0
DICTIONARYVAR
  5
2E
330
2D
100
DictionaryVariables
280
0
  1
1.4.2 @ 2026-03-25T09:01:11.838348+00:00
  0
DICTIONARYVAR
  5
AD
330
2D
100
DictionaryVariables
280
0
  1
1.4.2 @ 2026-03-25T09:01:11.841349+00:00
  0
ENDSEC
  0
EOF
